<?xml version="1.0" encoding="utf-8"?>
<!-- Generator: Adobe Illustrator 14.0.0, SVG Export Plug-In  -->
<!DOCTYPE svg PUBLIC "-//W3C//DTD SVG 1.1//EN" "http://www.w3.org/Graphics/SVG/1.1/DTD/svg11.dtd" [
	<!ENTITY ns_flows "http://ns.adobe.com/Flows/1.0/">
]>
<svg version="1.1"
	 xmlns="http://www.w3.org/2000/svg" xmlns:xlink="http://www.w3.org/1999/xlink" xmlns:a="http://ns.adobe.com/AdobeSVGViewerExtensions/3.0/"
	 x="0px" y="0px" width="196px" height="52px" viewBox="-0.013 0.072 196 52" enable-background="new -0.013 0.072 196 52"
	 xml:space="preserve">
<defs>
</defs>
<path fill-rule="evenodd" clip-rule="evenodd" fill="#323031" d="M193.809,17.452c-0.088-0.13-0.2-0.245-0.342-0.342
	c-0.088-0.13-0.2-0.245-0.342-0.342c-0.088-0.13-0.201-0.246-0.344-0.343c-0.088-0.13-0.199-0.245-0.342-0.342
	c-0.087-0.13-0.2-0.245-0.342-0.342c-0.088-0.131-0.201-0.246-0.343-0.343c-0.087-0.13-0.2-0.245-0.342-0.342
	c-0.088-0.13-0.2-0.245-0.343-0.342c-0.088-0.13-0.2-0.244-0.342-0.342c-0.088-0.13-0.201-0.246-0.343-0.343
	c-0.088-0.13-0.2-0.245-0.343-0.342c-0.087-0.13-0.2-0.245-0.342-0.342c-0.088-0.13-0.2-0.245-0.342-0.342
	c-0.088-0.131-0.201-0.246-0.344-0.343c-0.087-0.13-0.199-0.244-0.341-0.341c-0.087-0.13-0.2-0.245-0.343-0.343
	c-0.088-0.13-0.201-0.245-0.343-0.343c-0.087-0.13-0.2-0.245-0.342-0.342c-0.087-0.13-0.2-0.245-0.343-0.342
	c-0.087-0.13-0.199-0.245-0.342-0.342c-0.087-0.13-0.2-0.245-0.342-0.343c-0.088-0.13-0.201-0.245-0.344-0.342
	c-0.087-0.13-0.199-0.245-0.342-0.342c-0.087-0.13-0.2-0.245-0.342-0.342c-0.088-0.13-0.2-0.245-0.342-0.342
	c-0.088-0.131-0.201-0.246-0.344-0.343c-0.087-0.13-0.199-0.245-0.342-0.342c-0.087-0.13-0.199-0.245-0.341-0.342
	c-0.088-0.131-0.201-0.246-0.344-0.343c-0.087-0.13-0.2-0.244-0.341-0.341c-0.088-0.131-0.201-0.246-0.344-0.344
	c-0.088-0.13-0.2-0.244-0.342-0.341c-0.088-0.13-0.2-0.245-0.342-0.342c-0.088-0.131-0.201-0.246-0.344-0.343
	c-0.087-0.13-0.199-0.245-0.342-0.342c-0.087-0.13-0.199-0.245-0.342-0.342c-0.088-0.13-0.2-0.245-0.342-0.342
	c-0.088-0.13-0.201-0.245-0.344-0.343c-0.087-0.13-0.199-0.245-0.342-0.342c-0.087-0.13-0.199-0.245-0.342-0.342
	c-0.088-0.13-0.2-0.245-0.342-0.342c-0.088-0.131-0.201-0.246-0.344-0.343c-0.088-0.13-0.2-0.244-0.342-0.341
	c-0.088-0.13-0.2-0.245-0.342-0.342c-0.088-0.13-0.2-0.245-0.342-0.342c-0.088-0.131-0.201-0.246-0.344-0.343
	c-0.087-0.13-0.199-0.245-0.342-0.342c-0.088-0.13-0.2-0.245-0.342-0.342c-0.088-0.13-0.2-0.245-0.342-0.342
	c-0.088-0.131-0.201-0.246-0.344-0.343c-0.086-0.128-0.198-0.241-0.337-0.337H0c14.135,14.165,35.93,36.022,35.93,36.022
	c0.331,0.305,2.267,0.174,2.981,0.145c0.485-0.028,1.033-0.085,1.573-0.15c0.086,0.1,0.178,0.186,0.274,0.25
	c0.099,0.139,0.218,0.259,0.341,0.34c0.099,0.141,0.218,0.262,0.342,0.343c0.099,0.14,0.219,0.261,0.342,0.343
	c0.099,0.141,0.22,0.262,0.344,0.344c0.098,0.139,0.217,0.259,0.34,0.34c0.098,0.14,0.218,0.261,0.342,0.342
	c0.099,0.141,0.22,0.264,0.344,0.345c0.098,0.139,0.217,0.259,0.34,0.341c0.099,0.139,0.219,0.261,0.342,0.342
	c0.099,0.141,0.22,0.263,0.344,0.344c0.099,0.141,0.219,0.262,0.342,0.343c0.099,0.14,0.218,0.261,0.342,0.341
	c0.099,0.141,0.219,0.262,0.343,0.344c0.099,0.14,0.219,0.261,0.342,0.342c0.099,0.141,0.219,0.261,0.342,0.342
	c0.099,0.141,0.219,0.262,0.343,0.344c0.099,0.139,0.218,0.26,0.341,0.34c0.099,0.141,0.219,0.262,0.343,0.344
	c0.099,0.139,0.218,0.26,0.341,0.342c0.099,0.139,0.219,0.26,0.343,0.342c0.099,0.141,0.219,0.262,0.343,0.344
	c0.099,0.139,0.218,0.26,0.342,0.341c0.098,0.14,0.218,0.261,0.342,0.343c0.099,0.14,0.218,0.261,0.342,0.342
	c0.099,0.141,0.219,0.262,0.343,0.344c0.174,0.246,0.435,0.436,0.598,0.459c0.298,0.043,0.736-0.119,1.057-0.252
	c0.243-0.1,0.658-0.336,0.79-0.441c0.282-0.227,0.495-0.719,0.778-0.99c0.225-0.215,0.849-0.734,1.134-0.734
	c0.229,0,0.407,0.256,0.622,0.447c0.384,0.342,0.687,0.645,1.002,0.855c0.068,0.045,0.168-0.004,0.242,0.039
	c0.23,0.129,0.41,0.322,0.621,0.445c0.172,0.102,0.398,0.248,0.609,0.371c0.259,0.152,0.432,0.307,0.75,0.27
	c0.47-0.055,0.655-0.229,0.713-0.43c0.12-0.424-0.211-0.719-0.447-0.905c-0.087-0.126-0.202-0.229-0.307-0.313
	c-0.342-0.459-0.551-0.918-0.904-1.254c-0.069-0.064-0.142-0.129-0.212-0.191c-0.043-0.051-0.082-0.104-0.13-0.15
	c-0.067-0.064-0.138-0.127-0.208-0.188c-0.044-0.052-0.084-0.107-0.134-0.154c-0.068-0.064-0.139-0.129-0.209-0.189
	c-0.034-0.039-0.065-0.08-0.102-0.117c-0.027-0.057-0.058-0.113-0.057-0.17c0-0.141,0.354-0.475,0.587-0.723
	c0.267-0.285,0.486-0.525,0.664-0.736c0.29-0.346,1.215-1.143,1.06-1.662c-0.065-0.221-0.196-0.338-0.365-0.391
	c-0.069-0.186-0.188-0.293-0.342-0.342c-0.069-0.186-0.188-0.294-0.342-0.342c-0.069-0.187-0.188-0.295-0.342-0.343
	c-0.069-0.187-0.188-0.294-0.342-0.343c-0.07-0.186-0.189-0.294-0.343-0.342c-0.069-0.186-0.188-0.294-0.341-0.342
	c-0.069-0.187-0.188-0.295-0.342-0.343c-0.069-0.187-0.188-0.294-0.342-0.343c-0.07-0.186-0.188-0.293-0.342-0.342
	c-0.069-0.186-0.188-0.293-0.342-0.342c-0.069-0.187-0.188-0.294-0.343-0.343c-0.042-0.114-0.103-0.2-0.18-0.259
	c2.209-0.131,4.688-0.096,6.991,0.16c0.728,0.08,1.429,0.191,2.101,0.271c1.017,0.117,2.292,0.238,3.444,0.449
	c0.014,0.002,0.032,0.006,0.046,0.008c0.063,0.062,0.126,0.13,0.188,0.186c0.116,0.126,0.231,0.244,0.346,0.346
	c0.113,0.123,0.226,0.238,0.337,0.338c0.117,0.127,0.233,0.245,0.349,0.348c0.113,0.123,0.226,0.239,0.339,0.34
	c0.114,0.123,0.228,0.24,0.341,0.341c0.115,0.124,0.229,0.241,0.343,0.343c0.114,0.125,0.229,0.242,0.342,0.343
	c0.115,0.124,0.229,0.241,0.343,0.343c0.114,0.124,0.228,0.24,0.341,0.342c0.116,0.125,0.23,0.242,0.345,0.344
	c0.113,0.123,0.226,0.238,0.338,0.339c0.116,0.126,0.231,0.243,0.345,0.346c0.114,0.123,0.227,0.239,0.339,0.339
	c0.116,0.126,0.231,0.244,0.346,0.346c0.114,0.124,0.228,0.24,0.341,0.342c0.114,0.124,0.229,0.24,0.342,0.342
	c0.114,0.123,0.228,0.24,0.34,0.341c0.115,0.125,0.23,0.242,0.344,0.344c0.115,0.125,0.23,0.242,0.344,0.344
	c0.112,0.122,0.225,0.237,0.336,0.337c0.117,0.127,0.234,0.246,0.35,0.35c0.112,0.121,0.224,0.236,0.335,0.336
	c0.117,0.127,0.233,0.245,0.349,0.348c0.113,0.123,0.225,0.237,0.336,0.337c0.116,0.126,0.232,0.244,0.347,0.347
	c0.113,0.123,0.227,0.238,0.339,0.34c0.116,0.125,0.231,0.243,0.347,0.346c0.113,0.123,0.226,0.238,0.337,0.338
	c0.116,0.126,0.231,0.244,0.346,0.346c0.113,0.123,0.226,0.238,0.338,0.338c0.116,0.127,0.231,0.244,0.346,0.347
	c0.114,0.124,0.228,0.239,0.34,0.341c0.115,0.124,0.229,0.241,0.343,0.342c0.115,0.125,0.23,0.242,0.344,0.344
	c0.114,0.123,0.227,0.24,0.34,0.34c0.115,0.125,0.229,0.242,0.343,0.344c0.114,0.123,0.228,0.24,0.341,0.341
	c0.116,0.126,0.231,0.243,0.345,0.345c0.114,0.124,0.228,0.24,0.341,0.342c0.116,0.125,0.23,0.242,0.345,0.344
	c0.113,0.123,0.226,0.238,0.338,0.338c0.115,0.125,0.23,0.243,0.344,0.345c0.114,0.124,0.229,0.241,0.342,0.342
	c0.115,0.125,0.229,0.242,0.344,0.344c1.938,2.104,3.661,0.709,7.822,2.187c1.054,0.375,2.956-0.164,3.995-0.592
	c1.475-0.607,3.141-0.393,4.483-1.383c0.746-0.551,1.651-2.072,2.555-2.262c1.508-0.316,2.584-2.156,3.041-3.402
	c0.229-0.646,0.544-1.188,0.83-1.77c0.018,0.016,0.038,0.025,0.056,0.039c0.101,0.129,0.216,0.24,0.342,0.343
	c0.101,0.129,0.216,0.241,0.343,0.343c0.102,0.129,0.216,0.24,0.342,0.342c0.102,0.129,0.216,0.24,0.343,0.342
	c0.101,0.129,0.216,0.241,0.343,0.344c0.101,0.128,0.215,0.239,0.342,0.342c0.101,0.129,0.216,0.24,0.342,0.342
	c0.102,0.129,0.217,0.24,0.344,0.344c0.1,0.128,0.215,0.238,0.342,0.341c0.1,0.129,0.215,0.241,0.342,0.343
	c0.102,0.129,0.216,0.24,0.343,0.342c0.101,0.129,0.216,0.24,0.342,0.343c0.101,0.129,0.216,0.24,0.343,0.343
	c0.101,0.129,0.215,0.239,0.342,0.342c0.101,0.129,0.215,0.24,0.342,0.342c0.102,0.129,0.217,0.24,0.344,0.344
	c0.1,0.127,0.215,0.238,0.341,0.34c0.101,0.13,0.216,0.242,0.343,0.344c0.102,0.129,0.216,0.24,0.342,0.342
	c0.102,0.129,0.216,0.24,0.343,0.342c0.192,0.246,0.413,0.467,0.706,0.602c0.43,0.197,1.715,0.297,2.096,0.578
	c1.316,0.254,2.162,1.16,3.582,1.02c1.439-0.143,2.711,0.328,4.152,0.08c1.484-0.256,3.525-0.697,5.16-1.328
	c0.049-0.045,0.094-0.094,0.148-0.133c0.389-0.373,0.637-0.75,0.928-1.248c0.211-0.359,0.531-0.648,0.957-0.734
	c0.346-0.068,0.686-0.072,1.023-0.053c0.074-0.01,0.154-0.02,0.234-0.027c0.068-0.016,0.137-0.033,0.203-0.055
	c0.031-0.02,0.062-0.039,0.096-0.053c0.434-0.408,0.861-0.844,1.33-1.326c1.131-1.154,1.34-2.777,2.223-4.098
	c0.053-0.08,0.082-0.171,0.13-0.254c0.026,0.021,0.05,0.039,0.075,0.059c0.062,0.074,0.121,0.15,0.189,0.224
	c0.055,0.047,0.102,0.079,0.151,0.118c0.063,0.074,0.122,0.15,0.19,0.225c0.056,0.047,0.103,0.08,0.154,0.119
	c0.062,0.074,0.119,0.148,0.188,0.223c0.056,0.047,0.103,0.079,0.153,0.119c0.062,0.074,0.12,0.148,0.189,0.223
	c0.056,0.048,0.103,0.08,0.154,0.12c0.062,0.074,0.12,0.149,0.188,0.222c0.055,0.048,0.102,0.08,0.152,0.119
	c0.062,0.074,0.121,0.15,0.189,0.225c0.056,0.047,0.103,0.079,0.153,0.119c0.063,0.074,0.121,0.149,0.189,0.223
	c0.055,0.047,0.101,0.078,0.151,0.117c0.062,0.076,0.121,0.151,0.19,0.225c0.056,0.049,0.104,0.081,0.155,0.121
	c0.062,0.074,0.119,0.148,0.188,0.221c0.055,0.047,0.101,0.079,0.151,0.118c0.063,0.075,0.121,0.151,0.19,0.225
	c0.055,0.048,0.102,0.079,0.152,0.119c0.063,0.075,0.121,0.149,0.19,0.224c0.056,0.047,0.103,0.08,0.153,0.119
	c0.062,0.074,0.12,0.15,0.189,0.223c0.055,0.048,0.101,0.08,0.151,0.119c0.063,0.074,0.121,0.15,0.19,0.224
	c0.055,0.048,0.103,0.08,0.153,0.12c0.062,0.074,0.12,0.148,0.188,0.223c0.057,0.047,0.104,0.08,0.154,0.119
	c0.062,0.074,0.12,0.148,0.188,0.223c0.056,0.047,0.102,0.079,0.152,0.119c0.063,0.074,0.121,0.148,0.19,0.223
	c0.055,0.047,0.101,0.079,0.151,0.118c0.063,0.075,0.121,0.151,0.19,0.225c0.055,0.048,0.102,0.079,0.152,0.119
	c0.062,0.074,0.121,0.149,0.189,0.224c0.055,0.047,0.102,0.078,0.152,0.117c0.062,0.076,0.121,0.15,0.19,0.225
	c0.056,0.049,0.103,0.08,0.153,0.121c0.062,0.073,0.121,0.148,0.189,0.221c0.055,0.048,0.102,0.08,0.152,0.119
	c0.062,0.074,0.121,0.15,0.189,0.223c0.055,0.048,0.102,0.08,0.152,0.119c0.062,0.075,0.121,0.15,0.189,0.225
	c0.889,0.766,1.191,0.443,2.133,1.074c0.494,0.33,2.381,1.27,4.773,1.076c0.643-0.053,1.523-0.438,2.105-0.324
	c0.703,0.133,2.215-0.051,2.893-0.25c4.875-1.42,4.25-3.154,7.271-4.592c0.342-0.164,0.65-0.439,0.93-0.801
	c0.008,0.004,0.017,0.008,0.023,0.012c0.094,0.139,0.206,0.256,0.343,0.344c0.093,0.137,0.206,0.254,0.343,0.342
	c0.094,0.139,0.205,0.255,0.342,0.342c0.094,0.139,0.206,0.256,0.343,0.343c0.093,0.138,0.206,0.255,0.343,0.343
	c0.094,0.137,0.205,0.254,0.342,0.342c0.094,0.138,0.205,0.255,0.342,0.342c0.094,0.139,0.206,0.255,0.343,0.343
	c0.093,0.138,0.205,0.255,0.343,0.343c0.093,0.137,0.205,0.254,0.342,0.342c0.094,0.138,0.205,0.255,0.342,0.342
	c0.094,0.139,0.206,0.256,0.343,0.343c0.093,0.138,0.206,0.255,0.343,0.343c0.287,0.424,0.764,0.645,1.533,0.469
	c0.973-0.221,2.264-0.41,3.096,0.098c0.596,0.365,1.947,0.432,2.604,0.236c0.75-0.223,1.637-0.725,2.477-0.518
	c0.596,0.145,1.176,0.295,1.809,0.295c0.939-0.002,1.617-0.549,2.578-0.621c0.654-0.051,1.424,0.613,1.996,0.203
	c0.414-0.299,0.832-0.244,1.367-0.332c1.055-0.17,1.869-0.115,2.916-0.4c0.799-0.213,2.018-0.359,3.312-1.988
	c1.217-1.527,1.484-3.072,2.416-4.146c1.562-1.801,0.941-3.406,1.896-5.033c0.428-0.809,0.881-1.438,1.047-2.363
	c0.17-0.955-0.447-2.643-0.096-3.596c0.859-2.33,1.111-5.277,0.84-6.868c-0.172-1.008-0.059-2.106,0.125-3.289
	c0.191-1.24,0.041-2.256-0.854-3.174C194.398,18.889,194.509,17.933,193.809,17.452z"/>
<radialGradient id="SVGID_1_" cx="133.3843" cy="34.1904" r="75.5028" gradientUnits="userSpaceOnUse">
	<stop  offset="0" style="stop-color:#FAFAFA"/>
	<stop  offset="1" style="stop-color:#D9D9D9"/>
</radialGradient>
<path fill-rule="evenodd" clip-rule="evenodd" fill="url(#SVGID_1_)" d="M165.649,28.907c0.771-1.297,0.277-2.243,0.129-3.985
	c-0.07-0.807-0.188-1.791-0.484-2.562c-0.496-1.282-0.068-2.205-0.398-3.524c-0.24-0.959-1.596-1.726-2.379-2.213
	c-0.865-0.536-1.604-0.36-2.232-1.087c-0.119-0.087-0.234-0.187-0.338-0.312c-0.131-0.161-0.24-0.337-0.365-0.503
	c0.062,0.082-0.1-0.074-0.115-0.091c-0.018-0.02-0.031-0.044-0.049-0.065c-0.832-0.591-1.996-0.7-3.105-0.682
	c-0.566,0.073-1.129,0.16-1.697,0.216c-0.795,0.08-1.771,0.252-2.672,0.205c-0.342,0.028-0.68,0.068-1.02,0.123
	c-0.02,0.004-0.039,0.004-0.057,0.006c-1.246,0.326-2.461,0.634-3.52,1.501c-1.314,1.084-2.535,2.326-3.844,3.442
	c-1.402,1.197-1.684,3.438-2.289,5.063c-0.43,1.153-1.051,2.154-1.693,3.19c-0.701,1.129-0.807,2.346-1.062,3.619
	c-0.309,1.529,0.659,3.411-0.27,4.805c-0.973,1.459-1.008,3.389-0.463,4.904c0.518,1.439,0.455,2.383,0.455,3.877
	c0.002,0.607,0.318,1.291,0.756,1.703c1.125,1.061,1.432,2.289,2.469,3.398c0.889,0.766,1.191,0.443,2.131,1.074
	c0.496,0.328,2.383,1.27,4.775,1.076c0.643-0.053,1.523-0.438,2.105-0.324c0.701,0.133,2.215-0.053,2.893-0.25
	c4.873-1.422,4.25-3.154,7.271-4.594c1.078-0.514,1.875-2.041,2.225-4.473c0.129-0.895-0.115-1.447,0.326-2.447
	c0.328-0.742,0.734-0.795,1.057-1.387c0.525-0.961,0.283-3.66,0.748-4.654C165.768,32.171,164.538,30.778,165.649,28.907z
	 M158.049,33.53c-0.07,1.137-1.107,2.959-1.057,4.225c0.066,1.65-0.441,3.113-1.111,3.426c-0.91,0.426-1.225,1.982-1.494,2.641
	c-0.586,1.436-3.264,0.283-4.6,1.463c-0.949,0.84-3.258-0.08-3.631-1.984c-0.32-1.645-1.465-2.037-0.678-4.008
	c0.662-1.65-0.35-4.162,0.148-5.742c0.387-1.227,1.279-1.766,1.428-3.254c0.09-0.898,0.15-1.49,0.459-2.297
	c0.658-1.72,1.496-2.082,2.084-3.146c0.424-0.764,0.256-1.718,0.787-2.455c0.068-0.095,0.15-0.174,0.24-0.246
	c0.377-0.298,0.566-0.474,0.885-0.658c0.537-0.331,1.195-0.521,1.816-0.535c0.002-0.003,0.004-0.004,0.004-0.006v0.005
	c0.311-0.006,0.607,0.035,0.879,0.124c1.043,0.206,2.52,0.812,2.963,1.089c1.684,1.048,0.207,2.748,0.582,4.113
	c0,0.002,0,0.002,0,0.002c0.314,1.148,0.631,1.852,0.236,3.004c-0.162,0.473-0.438,0.889-0.557,1.377
	C157.239,31.468,158.098,32.747,158.049,33.53z"/>
<radialGradient id="SVGID_2_" cx="133.4243" cy="34.1895" r="75.4314" gradientUnits="userSpaceOnUse">
	<stop  offset="0" style="stop-color:#FAFAFA"/>
	<stop  offset="1" style="stop-color:#D9D9D9"/>
</radialGradient>
<path fill-rule="evenodd" clip-rule="evenodd" fill="url(#SVGID_2_)" d="M195.047,19.555c-0.717-0.734-0.496-1.829-1.475-2.24
	c-0.713-0.302-1.734-0.684-2.408-1.032c-1.307-0.674-2.986-1.504-4.484-1.504c-1.031,0-2.031,0.368-3.051,0.507
	c-1.164,0.158-2.066-0.56-3.234-0.449l-0.012,0.168l0,0l-0.029-0.169c-1.523,0.126-2.852,0.65-4.418,0.65
	c-1.381-0.098-4.221-1.269-5.031,0.621c-0.449,1.049-0.092,2.434-0.332,3.562c-0.234,1.103,0.072,2.174-0.32,3.228
	c-0.721,1.927-1.787,4.321-1.619,6.417c0.137,1.736-0.623,3.412-0.709,5.207c-0.059,1.227-0.064,1.717-0.656,2.791
	c-0.629,1.145-0.137,2.061-0.301,3.189c-0.33,2.289-0.895,4.602-1.25,6.938c-0.238,1.58-0.324,4.1,1.799,3.613
	c0.975-0.223,2.266-0.41,3.096,0.098c0.598,0.365,1.949,0.432,2.605,0.236c0.75-0.223,1.637-0.725,2.477-0.52
	c0.596,0.146,1.176,0.297,1.807,0.297c0.941-0.002,1.619-0.549,2.58-0.623c0.654-0.049,1.424,0.615,1.994,0.203
	c0.414-0.297,0.834-0.242,1.369-0.33c1.053-0.17,1.869-0.115,2.916-0.4c0.799-0.213,2.018-0.361,3.312-1.988
	c1.215-1.527,1.482-3.072,2.416-4.146c1.562-1.801,0.941-3.406,1.896-5.033c0.426-0.809,0.879-1.439,1.045-2.363
	c0.172-0.955-0.445-2.643-0.094-3.598c0.859-2.33,1.111-5.275,0.84-6.866c-0.174-1.008-0.059-2.107,0.123-3.289
	C196.09,21.488,195.94,20.473,195.047,19.555z M180.309,15.003L180.309,15.003L180.309,15.003L180.309,15.003z M185.622,36.808
	c-0.146,0.832,0.291,2.812-0.119,3.592c-0.531,1.01-1.051,2.139-2.281,2.494c-0.859,0.248-1.268,0.344-2.467,0.404
	c-0.523,0.027-0.998,0.451-1.225,0.516c-1.219,0.348-1.105-0.297-1.811-0.471c-0.85-0.207-1.184,0.133-1.33,0.145
	c-2.168,0.172-0.807-4.283-0.727-5.193c0.078-0.885-0.365-1.523,0.035-2.438c0.461-1.047,1.158-2.41,1.355-3.564
	c0.248-1.467-0.117-2.197,0.375-3.727c0.275-0.863,0.65-1.653,0.686-2.578c0.027-0.698-0.461-1.396-0.176-2.086
	c0.342-0.831,1.785-1.551,2.633-1.366c0.457,0.1,0.91,0.254,1.346,0.425c0.836,0.325,1.648-0.267,2.521-0.258
	c4.654,0.045,2.885,2.604,3.611,4.709C188.79,29.554,186.198,33.454,185.622,36.808z"/>
<radialGradient id="SVGID_3_" cx="133.4468" cy="34.2031" r="75.3613" gradientUnits="userSpaceOnUse">
	<stop  offset="0" style="stop-color:#FAFAFA"/>
	<stop  offset="1" style="stop-color:#D9D9D9"/>
</radialGradient>
<path fill-rule="evenodd" clip-rule="evenodd" fill="url(#SVGID_3_)" d="M135.411,22.33c-1.273-1.947,0.129-4.304-2.732-5.12
	c-0.893-0.398-1.693-1.25-2.592-1.516c-0.738-0.219-1.488-0.395-2.223-0.628c-1.697-0.535-3.553-0.657-5.342-0.401
	c-2.543,0.364-2.896,1.464-4.408,2.327c-1.758,0.956-3.839,0.868-4.85,2.8c-0.908,1.734-1.068,2.802-2.633,3.986
	c-1.01,0.764-0.514,1.461-0.613,2.314c-0.359,3.071-0.701,3.102-1.324,4.672c-1.039,2.615,0.816,3.439-0.678,8.014
	c-0.482,1.479-0.344,4.846,0.232,6.41c0.389,1.064,1.75,1.531,2.021,2.691c0.197,0.846,0.572,1.826,1.42,2.217
	c0.428,0.197,1.715,0.297,2.096,0.578c1.316,0.254,2.162,1.16,3.582,1.02c1.439-0.143,2.711,0.326,4.15,0.08
	c1.486-0.256,3.527-0.697,5.162-1.328c0.049-0.045,0.094-0.094,0.148-0.133c0.389-0.373,0.637-0.75,0.928-1.248
	c0.211-0.361,0.531-0.65,0.955-0.734c0.348-0.068,0.688-0.072,1.023-0.053c0.076-0.01,0.154-0.02,0.236-0.027
	c0.068-0.016,0.137-0.033,0.203-0.055c0.029-0.02,0.061-0.039,0.096-0.053c0.434-0.408,0.859-0.846,1.33-1.326
	c1.131-1.154,1.338-2.777,2.223-4.098c1.395-2.084-0.068-5.108,1.043-7.396c0.406-0.864,1.672-2.667,1.102-4.669
	C135.196,27.958,137.25,25.145,135.411,22.33z M128.639,29.435c0.061,0.564-0.592,1.799-0.861,2.285
	c-0.283,0.514-0.135,0.951,0.035,1.457c0.311,0.926-0.117,2.59-0.221,3.602c-0.109,1.057-0.656,2.746-1.141,3.168
	c-0.562,0.49-0.812,1.295-0.789,2.029c0.031,0.986-1.02,1.557-1.785,2.094c-0.898,0.639-3.486,0.539-4.584,0.539
	c-0.805,0-2.234-0.904-2.539-1.672c-0.361-0.928,0.486-2.211-0.336-2.986c-0.816-0.771-0.645-2.24-0.621-3.062
	c0.027-1.092,0.086-1.375,0.629-2.469c0.793-1.6,0.223-2.713,0.436-4.301c0.191-1.414,1.479-2.443,1.705-3.851
	c0.18-1.129,0.121-2.182,1.082-2.766c0.738-0.448,1.264-0.407,1.939-0.987c0.277-0.237,0.6-0.659,1.156-0.655
	c1.451,0.012,1.029,0.515,1.877,0.69c0.854,0.179,0.916-0.069,1.613,0.187c2.045,0.754,0.611,2.046,1.391,3.399
	c0.701,1.221,0.859,1.852,1.014,3.293c0,0,0,0,0,0.002S128.639,29.433,128.639,29.435L128.639,29.435
	C128.647,29.507,128.643,29.474,128.639,29.435z"/>
<radialGradient id="SVGID_4_" cx="133.4233" cy="34.1904" r="75.4365" gradientUnits="userSpaceOnUse">
	<stop  offset="0" style="stop-color:#FAFAFA"/>
	<stop  offset="1" style="stop-color:#D9D9D9"/>
</radialGradient>
<path fill-rule="evenodd" clip-rule="evenodd" fill="url(#SVGID_4_)" d="M105.616,20.097c-0.498-0.266-0.801-1.513-1.271-1.976
	c-0.361-0.353-0.984-0.786-1.414-1.063c-0.639-0.413-0.895-1.289-1.609-1.727c-1.035-0.635-2.504-0.154-3.63-0.601
	c-0.975-0.388-2.082-1.021-3.07-0.475c-2.307,1.272-4.017,0.362-6.043,1.385c-0.856,0.432-1.771,1.781-2.824,1.982
	c-1.359,0.259-1.916,1.65-2.069,2.165c-0.153,0.514-0.87,0.936-1.456,1.307c-0.908,0.575-1.398,2.008-1.486,2.404
	c-0.056,0.248-0.249,0.521-0.353,0.727c-0.459,0.912,0.006,1.496-0.193,2.393c-0.173,0.766-1.154,1.951-1.489,2.74
	c-0.581,1.365,0.076,2.719-0.097,3.699c-0.368,2.086-1.645,4.316-0.706,6.158c0.297,0.582,0.22,1.826,0.03,2.441
	c-0.303,0.977-0.063,2.07-0.017,3.068c0.053,1.117,0.475,2.338,1.639,2.895c0.72,0.346,0.882,1.033,1.316,1.627
	c2.155,2.945,3.802,1.172,8.306,2.771c1.054,0.375,2.955-0.166,3.994-0.592c1.476-0.607,3.141-0.393,4.483-1.383
	c0.746-0.551,1.652-2.072,2.556-2.262c1.506-0.316,2.584-2.156,3.041-3.402c0.395-1.117,1.064-1.904,1.361-3.176
	c0.287-1.227,0.898-2.617,0.531-3.824c-0.699-2.311,0.635-2.496,0.68-3.834c0.018-0.498,0.166-1.656-0.07-2.107
	c-0.49-0.938-2.131-0.641-2.939-0.668c-1.844-0.061-3.755-0.389-5.583-0.389c-0.912,0.02-1.706,0.49-2.609,0.561
	c-0.858,0.07-1.951-0.188-2.754,0.17c-1.467,0.652-0.292,2.281-0.487,3.33c-0.151,0.818-0.668,1.822,0.261,2.402
	c1.471,0.92,3.248,0.006,4.839,0.213c0.512,0.066-0.636,4.086-0.82,4.396c-2.106,3.537-2.284,2.031-3.925,3.15
	c-1.639,1.119-1.891,0.174-3.463-0.354c-2.26-0.188-1.676-1.412-2.298-2.586c-0.445-0.828-0.491-1.732-0.292-2.664
	c0.25-1.168-0.034-2.812,0.64-3.83c0.863-1.303-0.015-2.693,0.232-4.061c0.169-0.941-0.464-1.857,0.598-2.879
	c0.644-0.619,0.351-1.672,0.609-2.5c0.273-0.85,0.777-1.834,1.344-2.001c1.091-0.321,1.256-1.34,1.377-1.538
	c0.444-0.602,1.356-0.316,1.997-0.539c1.303-0.45,1.538-1.177,2.723-0.525c0.949,0.522,1.131,0.769,1.809,0.851
	c1.044,0.127,0.072,1.078,0.864,1.744c0.953,0.802,0.376,1.485,0.352,2.244c0,1.038,1.287,1.146,2.566,1.183
	c1.473,0,2.379,0.238,3.828,0.16c0.861-0.047,1.207-0.325,1.42-0.937c0.449-1.288-0.186-2.282,0.121-3.009
	C106.713,22.061,106.463,20.55,105.616,20.097z"/>
<radialGradient id="SVGID_5_" cx="133.4214" cy="34.1895" r="75.4348" gradientUnits="userSpaceOnUse">
	<stop  offset="0" style="stop-color:#FAFAFA"/>
	<stop  offset="1" style="stop-color:#D9D9D9"/>
</radialGradient>
<path fill-rule="evenodd" clip-rule="evenodd" fill="url(#SVGID_5_)" d="M68.741,34.604c-0.251-0.092-0.357-0.197-0.614-0.305
	c-0.217-0.088-0.459-0.186-0.665-0.268c-0.51-0.199-0.893-0.41-1.326-0.539c-0.407-0.121-1.112-0.219-1.698-0.338
	c-1.269-0.26-2.562-0.533-3.532-0.807c-0.202-0.057-0.363-0.129-0.571-0.17c-0.115-0.023-0.364-0.014-0.475-0.035
	c-0.393-0.082-1.233-0.191-1.826-0.264c-1.432-0.178-2.91-0.285-4.639-0.309c-0.825-0.008-1.57-0.035-2.331-0.008
	c-0.963,0.037-2.072,0.168-3.049,0.283c-0.972,0.113-1.905,0.188-2.729,0.336c-0.423,0.076-0.835,0.213-1.275,0.312
	c-0.666,0.152-1.335,0.279-2.175,0.477c-0.334,0.078-0.737,0.145-1.027,0.23c-0.349,0.104-0.952,0.354-1.435,0.525
	c-0.778,0.268-2.218,0.807-2.892,1.314c-0.541,0.398-0.653,0.883-0.552,0.98c0.331,0.305,2.266,0.174,2.98,0.145
	c0.607-0.035,1.316-0.109,1.982-0.201c0.29-0.037,0.451-0.029,0.744-0.051c0.357-0.023,0.734-0.043,1.212-0.137
	c0.086-0.018,0.227-0.092,0.319-0.107c0.474-0.076,0.767-0.057,1.127-0.154c0.462-0.125,1.1-0.383,1.699-0.553
	c0.579-0.166,1.172-0.289,1.705-0.416c0.621-0.146,1.24-0.295,1.878-0.406c1.156-0.201,2.157-0.328,3.254-0.412
	c2.368-0.184,5.141-0.158,7.682,0.125c0.727,0.08,1.428,0.191,2.1,0.271c1.018,0.117,2.292,0.238,3.444,0.449
	c1.068,0.178,3.161,0.732,4.17,0.75C71.479,35.331,69.373,34.821,68.741,34.604z"/>
<radialGradient id="SVGID_6_" cx="133.4204" cy="34.1895" r="75.4332" gradientUnits="userSpaceOnUse">
	<stop  offset="0" style="stop-color:#FAFAFA"/>
	<stop  offset="1" style="stop-color:#D9D9D9"/>
</radialGradient>
<path fill-rule="evenodd" clip-rule="evenodd" fill="url(#SVGID_6_)" d="M76.646,21.343c-0.304-0.076-0.884,0.394-1.191,0.632
	c-0.413,0.321-0.797,0.582-1.08,0.787c-0.773,0.561-1.45,1.134-2.107,1.57c-0.454,0.302-0.938,0.643-1.339,0.903
	c-0.104,0.066-0.163,0.158-0.257,0.222c-0.189,0.131-0.425,0.216-0.621,0.344c-0.071,0.047-0.128,0.17-0.202,0.221
	c-0.094,0.062-0.216,0.109-0.312,0.172c-0.201,0.13-0.407,0.232-0.621,0.344c-0.424,0.219-0.838,0.518-1.355,0.532
	c-0.038-0.45,0.162-0.85,0.32-1.231c0.175-0.424,0.39-0.981,0.583-1.296c0.227-0.372,0.427-0.637,0.649-0.927
	c0.044-0.058,0.049-0.149,0.097-0.216c0.059-0.081,0.168-0.106,0.205-0.168c0.054-0.089,0.044-0.215,0.093-0.321
	c0.047-0.101,0.146-0.17,0.2-0.273c0.105-0.203,0.168-0.449,0.292-0.647c0.108-0.176,0.294-0.324,0.402-0.494
	c0.061-0.093,0.084-0.22,0.146-0.323c0.189-0.316,0.251-0.496,0.331-0.967c0.104-0.599,0.106-0.718-0.152-1.106
	c-0.323-0.488-0.857-0.865-1.371-1.162c-0.334-0.192-0.599-0.261-0.97-0.383c-0.745-0.248-1.466-0.481-1.945-0.927
	c-0.153-0.143-0.323-0.249-0.356-0.355c0.234-0.363,0.501-0.719,0.729-1.087c0.005-0.004,0.012-0.009,0.015-0.013
	c0.16-0.223,0.27-0.39,0.416-0.598c0.215-0.304,0.3-0.795,0.31-1.097c0.008-0.266,0.033-0.76-0.096-0.996
	c-0.087-0.16-0.195-0.265-0.326-0.445c-0.219-0.303-0.122-0.3-0.315-0.404c-0.072-0.039-0.109-0.066-0.162-0.099
	c-0.293-0.176-0.591-0.235-1.071-0.273c-0.572-0.046-0.874-0.021-1.159,0.154c-0.095,0.057-0.226,0.102-0.311,0.172
	c-0.323,0.262-0.934,1.256-0.991,1.63c-0.088,0.56,0.123,1.516,0.232,1.791c0.081,0.204,0.35,0.438,0.343,0.621
	c-0.007,0.187-0.287,0.488-0.547,0.771c-0.232,0.252-0.474,0.485-0.639,0.704c-0.111,0.147-0.18,0.369-0.297,0.542
	c-0.134,0.201-0.337,0.372-0.402,0.493c-0.133,0.238-0.265,0.526-0.365,0.708c-0.074,0.133-0.203,0.267-0.25,0.382
	c-0.006,0.016-0.091,0.039-0.104,0.057c-0.037,0.053-0.062,0.166-0.096,0.217c-0.153,0.22-0.345,0.393-0.506,0.604
	c-0.154,0.202-0.275,0.446-0.449,0.654c-0.171,0.204-0.347,0.381-0.504,0.604c-0.262,0.367-0.681,0.848-1.011,1.207
	c-0.234,0.256-0.92,1.176-1.23,1.004c-0.218-0.121-0.062-1.395,0.027-1.908c0.102-0.573,0.251-1.332,0.349-1.814
	c0.126-0.613,0.224-1.202,0.35-1.816c0.062-0.3,0.146-0.604,0.174-0.907c0.034-0.362-0.037-0.719,0.008-1.113
	c0.086-0.761,0.506-1.646,0.54-2.299c0.029-0.559-0.118-1.22-0.222-1.527c-0.041-0.122-0.03-0.255-0.067-0.368
	c-0.198-0.576-0.622-1.263-1.119-1.438c-0.108-0.037-0.265-0.011-0.478-0.034c-0.157-0.015-0.354-0.112-0.481-0.085
	c-0.141,0.03-0.597,0.241-0.786,0.407c-0.375,0.326-0.637,0.611-0.97,0.887c-0.146,0.121-0.311,0.197-0.411,0.282
	c-0.139,0.118-0.229,0.223-0.357,0.332c-0.271,0.229-0.219,0.487-0.44,0.704c-0.09,0.088-0.179,0.141-0.256,0.223
	c-1.046,1.137-1.904,2.563-2.647,3.869c-0.192,0.34-0.35,0.593-0.546,0.871c-0.112,0.158-0.183,0.431-0.405,0.44
	c0.016-1.36,0.422-3.207,0.606-4.528c0.033-0.235,0.077-0.487,0.078-0.691c0.002-0.324-0.07-1.093-0.158-1.265
	c-0.106-0.207-0.353-0.591-0.452-0.669c-0.094-0.077-0.619-0.323-0.702-0.343c-0.113-0.025-0.31-0.036-0.496-0.038
	c-0.122-0.024-0.282-0.014-0.458,0.024c-1.595,0.343-3.787,3.982-5.562,6.278c-0.094,0.076-0.174,0.109-0.215,0.053
	c-0.043-0.06,0.119-0.476,0.183-0.696c0.086-0.302,0.126-0.552,0.182-0.749c0.028-0.106,0.125-0.184,0.147-0.271
	c0.037-0.141,0.005-0.294,0.036-0.425c0.066-0.287,0.171-0.478,0.181-0.749c0.016-0.42-0.122-0.692-0.148-1.001
	c-0.047-0.59,0.078-1.208-0.062-1.533c-0.055-0.128-0.338-0.403-0.498-0.51c-0.212-0.141-0.727-0.329-0.969-0.383
	c-0.497-0.111-1.059-0.088-1.428,0.059c-0.115,0.046-0.57,0.347-0.67,0.451c-0.041,0.042-0.05,0.019-0.104,0.058
	c-0.283,0.206-0.501,0.418-0.715,0.611c-0.291,0.264-0.574,0.554-0.816,0.776c-0.044,0.04-0.106,0.021-0.156,0.059
	c-0.042,0.032-0.06,0.127-0.1,0.163c-0.309,0.278-0.531,0.517-0.815,0.776c-0.185,0.169-0.38,0.329-0.562,0.499
	c-0.193,0.181-0.421,0.347-0.562,0.501c-0.143,0.153-0.237,0.396-0.4,0.599c-0.15,0.188-0.361,0.318-0.51,0.498
	c-0.029,0.037-0.02,0.123-0.045,0.16c-0.033,0.046-0.119,0.066-0.155,0.112c-0.232,0.303-0.438,0.643-0.652,0.875
	c-0.289,0.314-1.219,0.949-1.058,1.315c0.074,0.167,0.94,0.316,1.283,0.265c0.47-0.071,0.709-0.471,1.076-0.84
	c0.155-0.154,0.354-0.275,0.512-0.444c0.169-0.179,0.301-0.407,0.454-0.549c0.125-0.114,0.31-0.17,0.566-0.395
	c0.198-0.174,0.35-0.449,0.505-0.604c0.071-0.069,0.189-0.097,0.258-0.169c0.129-0.135,0.221-0.292,0.354-0.438
	c0.118-0.133,0.252-0.254,0.406-0.389c0.322-0.282,0.677-0.672,1.021-0.942c0.062-0.048,0.034-0.104,0.202-0.221
	c0.52-0.361,0.614-0.217,0.445,0.511c-0.198,0.854-0.556,1.316-0.715,1.937c-0.098,0.38-0.332,0.814-0.43,1.131
	c-0.054,0.173-0.032,0.35-0.084,0.533c-0.086,0.304-0.251,0.594-0.333,0.914c-0.082,0.322-0.146,0.66-0.223,1.017
	c-0.233,1.078-1.77,5.746-1.969,6.71c-0.079,0.387-0.206,0.817-0.168,1.067c0.016,0.092,0.128,0.217,0.229,0.414
	c0.087,0.168,0.11,0.365,0.179,0.469c0.037,0.057,0.191,0.158,0.275,0.254c0.188,0.215,0.343,0.373,0.5,0.561
	c0.348,0.422,0.436,0.379,1.081,0.541c0.311,0.074,0.686,0.211,0.958,0.117c0.213-0.072,0.301-0.311,0.455-0.549
	c0.053-0.082,0.142-0.174,0.201-0.273c0.068-0.115,0.072-0.273,0.143-0.375c0.188-0.275,0.278-0.721,0.386-0.953
	c0.084-0.182,0.057-0.396,0.135-0.588c0.076-0.186,1.602-3.926,1.705-4.104c0.047-0.081,0.036-0.223,0.092-0.321
	c0.051-0.09,0.164-0.135,0.204-0.22c0.057-0.124,0.033-0.293,0.087-0.429c0.043-0.104,0.153-0.232,0.198-0.325
	c0.242-0.49,0.588-0.877,0.758-1.339c0.102-0.279,0.121-0.531,0.231-0.805c0.105-0.261,0.439-0.392,0.531-0.66
	c0.073-0.213,0.122-0.379,0.19-0.622c0.025-0.085,0.124-0.174,0.148-0.271c0.036-0.139-0.007-0.265,0.038-0.372
	c0.05-0.118,0.194-0.229,0.301-0.384c0.09-0.127,0.167-0.308,0.248-0.433c0.083-0.131,0.222-0.252,0.303-0.384
	c0.094-0.157,0.103-0.354,0.19-0.483c0.113-0.17,1.009-1.392,1.271-1.711c0.135-0.166,0.48-0.391,0.504-0.219
	c0.025,0.79-0.15,1.555-0.282,2.185c-0.062,0.301-0.146,0.508-0.182,0.696c-0.102,0.502-0.075,1.03-0.202,1.544
	c-0.114,0.469-0.282,0.912-0.365,1.393c-0.021,0.119-0.021,0.261-0.038,0.373c-0.096,0.618-0.28,1.284-0.346,1.868
	c-0.035,0.3,0.009,0.594-0.017,0.9c-0.02,0.224-0.16,0.542-0.126,0.801c0.013,0.093,0.142,0.223,0.229,0.414
	c0.087,0.188,0.107,0.408,0.18,0.521c0.104,0.16,0.374,0.333,0.554,0.561c0.091,0.116,0.137,0.248,0.227,0.361
	c0.356,0.447,0.972,0.662,1.571,0.835c0.537,0.155,1.032-0.008,1.13-0.476c0.081-0.21,0.164-0.42,0.247-0.631
	c0.145-0.289,0.252-0.581,0.352-0.918c0.002-0.006,0.001-0.013,0.004-0.019c0.506-1.306,0.779-2.688,1.438-4.145
	c0.068-0.165,0.135-0.331,0.201-0.497c0.064-0.105,0.124-0.207,0.154-0.294c0.02-0.059,0.03-0.121,0.037-0.184
	c0.112-0.284,0.225-0.568,0.333-0.855c0.041-0.11,0.044-0.215,0.019-0.309c0.009-0.033,0.017-0.067,0.028-0.1
	c0.263-0.774,0.571-1.419,0.983-2.101c0.235-0.39,0.572-0.842,0.794-1.169c0.094-0.14,0.153-0.301,0.247-0.435
	c0.263-0.379,0.568-0.754,0.911-0.991c0.12-0.082,0.53-0.407,0.521-0.109c-0.017,0.706-0.244,1.453-0.396,1.977
	c-0.042,0.144-0.076,0.209-0.095,0.269c-0.211,0.721-0.366,1.458-0.545,2.193c-0.225,0.937-0.524,1.787-0.682,2.73
	c-0.033,0.2-0.105,0.395-0.134,0.588c-0.065,0.422-0.017,0.868-0.053,1.327c-0.048,0.632-0.237,1.316-0.181,2.021
	c0.033,0.41,0.336,0.713,0.63,1.14c0.159,0.229,0.337,0.487,0.451,0.67c0.053,0.083,0.073,0.21,0.116,0.259
	c0.08,0.093,0.246,0.138,0.382,0.25c0.128,0.105,0.222,0.286,0.332,0.357c0.126,0.082,0.341,0.113,0.485,0.192
	c0.084,0.045,0.1,0.107,0.166,0.152c0.227,0.162,0.943,0.271,1.227,0.215c0.278-0.057,0.432-0.398,0.771-0.563
	c0.102-0.051,0.255-0.031,0.367-0.067c0.33-0.107,0.377-0.188,0.566-0.395c0.229-0.254,0.555-0.472,0.768-0.667
	c0.048-0.046,0.1-0.114,0.151-0.166c0.405-0.399,0.962-0.738,1.227-1.11c0.098-0.139,0.137-0.364,0.241-0.54
	c0.102-0.165,0.26-0.289,0.354-0.438c0.057-0.089,0.043-0.189,0.096-0.269c0.138-0.215,0.491-0.549,0.553-0.711
	c0.061-0.162-0.013-0.369,0.03-0.532c0.016-0.053,0.106-0.181,0.148-0.271c0.161-0.35,0.329-0.626,0.491-0.92
	c0.114-0.208,0.217-0.399,0.347-0.597c0.334-0.512,0.54-0.893,0.803-1.535c0.005-0.009,0.011-0.018,0.016-0.026
	c0.293-0.379,0.574-0.766,0.848-1.157c0.085,0.065,0.177,0.148,0.242,0.202c0.295,0.241,0.476,0.411,0.712,0.554
	c0.09,0.055,0.168,0.119,0.218,0.149c0.143,0.087,0.241,0.062,0.276,0.307c0.024,0.155-0.221,0.462-0.391,0.759
	c-0.146,0.254-0.286,0.576-0.393,0.757c-0.306,0.521-0.641,1.021-0.894,1.468c-0.039,0.068-0.009,0.145-0.044,0.213
	c-0.026,0.052-0.119,0.108-0.152,0.166c-0.065,0.112-0.122,0.255-0.196,0.379c-0.068,0.115-0.188,0.211-0.251,0.327
	c-0.068,0.132-0.077,0.299-0.141,0.431c-0.12,0.248-0.308,0.493-0.394,0.758c-0.052,0.161-0.035,0.321-0.085,0.48
	c-0.047,0.149-0.156,0.296-0.195,0.431c-0.037,0.135-0.006,0.277-0.034,0.426c-0.025,0.127-0.11,0.244-0.145,0.377
	c-0.133,0.534-0.25,1.228-0.032,1.75c0.034,0.084,0.074,0.236,0.118,0.312c0.077,0.139,0.315,0.311,0.388,0.408
	c0.045,0.062,0.019,0.146,0.062,0.209c0.065,0.098,0.138,0.195,0.225,0.309c0.079,0.104,0.172,0.305,0.227,0.361
	c0.05,0.053,0.155,0.053,0.216,0.098c0.072,0.053,0.107,0.15,0.168,0.205c0.27,0.242,0.502,0.412,0.766,0.604
	c0.146,0.104,0.304,0.27,0.384,0.303c0.148,0.061,0.409,0.033,0.586,0.08c0.194,0.053,0.339,0.182,0.485,0.193
	c0.191,0.016,0.4-0.09,0.632-0.08c0.175,0.008,0.352,0.111,0.535,0.137c0.163,0.023,0.388,0.039,0.531,0.031
	c0.271-0.018,0.728-0.111,0.998-0.199c0.181-0.061,0.369-0.219,0.571-0.289c0.219-0.076,0.44-0.057,0.577-0.131
	c0.128-0.068,0.283-0.271,0.459-0.441c0.077-0.074,0.179-0.086,0.257-0.17c0.088-0.094,0.095-0.188,0.201-0.273
	c0.182-0.148,0.446-0.203,0.621-0.344c0.208-0.168,0.345-0.469,0.556-0.658c0.048-0.043,0.141-0.059,0.208-0.115
	c0.179-0.152,0.393-0.244,0.566-0.395c0.211-0.182,0.465-0.676,0.76-0.826c0.018-0.009,0.027-0.094,0.049-0.107
	c0.094-0.06,0.129-0.051,0.206-0.114c0.113-0.094,0.248-0.192,0.307-0.277c0.101-0.145,0.128-0.406,0.241-0.593
	c0.191-0.316,0.611-0.515,0.711-0.718c0.091-0.184-0.017-0.333,0.033-0.479c0.071-0.211,0.303-0.341,0.404-0.494
	c0.057-0.085,0.091-0.222,0.146-0.322c0.066-0.125,0.188-0.232,0.2-0.274c0.039-0.127-0.056-0.283-0.02-0.476
	c0.013-0.069,0.109-0.177,0.147-0.271c0.104-0.253,0.177-0.683,0.066-0.956C76.952,21.634,76.646,21.344,76.646,21.343z
	 M65.034,14.609c-0.179,0.025-0.311-0.083-0.29-0.461c0.021-0.423,0.383-0.949,0.687-1.3c0.036-0.043,0.197-0.097,0.267-0.111
	c0.011-0.001,0.084-0.072,0.156-0.059c0.068,0.013,0.177,0.019,0.234,0.119c-0.002,0.009-0.005,0.016-0.007,0.024
	C65.931,13.555,65.53,14.094,65.034,14.609z"/>
<radialGradient id="SVGID_7_" cx="133.4224" cy="34.1895" r="75.4358" gradientUnits="userSpaceOnUse">
	<stop  offset="0" style="stop-color:#FAFAFA"/>
	<stop  offset="1" style="stop-color:#D9D9D9"/>
</radialGradient>
<path fill-rule="evenodd" clip-rule="evenodd" fill="url(#SVGID_7_)" d="M57.585,43.792c-0.416-0.508-0.621-1.031-1.013-1.402
	c-0.118-0.113-0.239-0.207-0.367-0.332c-0.181-0.174-0.687-0.508-0.685-0.828c0-0.141,0.354-0.475,0.587-0.723
	c0.267-0.285,0.486-0.525,0.663-0.736c0.291-0.346,1.215-1.143,1.061-1.662c-0.185-0.619-0.868-0.447-1.525-0.221
	c-0.343,0.117-0.632,0.635-1.16,1.053c-0.369,0.291-0.936,0.82-1.274,0.834c-0.263,0.012-0.569-0.312-0.875-0.562
	c-0.572-0.467-0.895-0.74-1.497-1.008c-0.489-0.217-0.71-0.408-1.196-0.117c-0.926,0.555,0.126,1.686,0.49,2.035
	c0.237,0.227,1.113,0.844,1.077,1.312c-0.013,0.164-0.518,0.57-0.663,0.736c-0.04,0.045-0.088,0.125-0.128,0.178
	c-0.176,0.229-0.368,0.41-0.535,0.557c-0.442,0.393-1.423,0.877-1.403,1.484c0.014,0.439,0.521,0.855,0.772,0.893
	c0.297,0.043,0.735-0.119,1.057-0.252c0.243-0.1,0.657-0.336,0.789-0.441c0.282-0.227,0.496-0.719,0.779-0.99
	c0.225-0.215,0.849-0.734,1.133-0.734c0.229,0,0.407,0.256,0.623,0.447c0.384,0.342,0.687,0.645,1.002,0.855
	c0.067,0.045,0.168-0.004,0.241,0.039c0.23,0.129,0.411,0.322,0.622,0.445c0.172,0.102,0.398,0.248,0.609,0.371
	c0.259,0.152,0.432,0.307,0.749,0.27c0.47-0.055,0.655-0.229,0.713-0.43C58.396,44.278,57.705,43.935,57.585,43.792z"/>
</svg>
